<?xml version="1.0" encoding="UTF-8"?>
<svg version="1.1" xmlns="http://www.w3.org/2000/svg" width="512" height="512">
<path d="M0 0 C19.94505874 17.64108196 32.69120537 39.7031509 35.875 66.3671875 C36.13870393 71.18393109 36.15547665 75.98175825 36.125 80.8046875 C36.13273437 82.02478516 36.14046875 83.24488281 36.1484375 84.50195312 C36.13313123 91.6997254 35.57248334 98.55880351 34.33422852 105.65087891 C33.26131398 111.99710278 33.91950714 116.69076701 35.4375 122.8671875 C38.55976444 136.75383028 36.60361832 150.99518583 29.125 163.2421875 C25.5093435 168.27306308 21.03432233 172.71828946 14.83203125 173.9921875 C11.51009134 175.53686762 11.3269367 175.8866047 10.07421875 179.12109375 C9.55169445 180.71798596 9.04895566 182.32144085 8.5625 183.9296875 C0.78505223 207.05591859 -13.04589486 227.98536457 -32.125 243.3671875 C-30.86812674 251.60669 -27.59537722 258.35449652 -23.125 265.3671875 C-22.79757812 265.96265381 -22.47015625 266.55812012 -22.1328125 267.17163086 C-17.7261257 273.81097974 -10.28853094 274.61265703 -3.00180054 276.16891479 C1.06967087 277.04387104 5.11779131 278.01635353 9.16796875 278.984375 C9.98851242 279.17899826 10.80905609 279.37362152 11.65446472 279.57414246 C32.44974 284.57720036 52.57723417 292.19643477 71.875 301.3671875 C72.74253906 301.77437012 73.61007812 302.18155273 74.50390625 302.60107422 C95.13757901 312.40829312 108.89166819 325.92605459 117.875 347.3671875 C124.65758184 367.18669456 128.48278583 395.51029795 120.125 415.4296875 C119.41295245 416.76315836 118.66273271 418.07698076 117.875 419.3671875 C117.27751953 420.42873047 117.27751953 420.42873047 116.66796875 421.51171875 C98.78620122 450.93675985 60.20688384 462.41537531 28.96533203 470.23095703 C12.42976717 474.17524015 -4.23473505 476.98853535 -21.09057617 479.11004639 C-23.03712927 479.35608107 -24.98246962 479.61165416 -26.92773438 479.86767578 C-69.79726495 485.2738881 -116.30537955 485.00279497 -159.125 479.3671875 C-160.49930284 479.19348242 -161.87365309 479.02015201 -163.24804688 478.84716797 C-209.9407514 472.88245484 -264.09696708 463.05115288 -296.37109375 425.69140625 C-303.98741951 415.5985024 -305.6566458 404.6947327 -306.125 392.3671875 C-306.15368164 391.63886719 -306.18236328 390.91054688 -306.21191406 390.16015625 C-307.02643638 365.95131579 -302.69315168 342.7146983 -285.875 324.1796875 C-258.24350802 294.89398203 -209.24883009 279.78913779 -170.125 274.3671875 C-168.4586266 274.33592319 -166.79117304 274.32662664 -165.125 274.3671875 C-164.86332031 273.8 -164.60164062 273.2328125 -164.33203125 272.6484375 C-163.0271879 270.1823258 -161.48836506 268.09671973 -159.8125 265.8671875 C-155.93872154 260.40831388 -153.28969305 254.69131141 -151.125 248.3671875 C-150.79886719 247.53574219 -150.47273437 246.70429688 -150.13671875 245.84765625 C-149.84590687 243.09517951 -149.84590687 243.09517951 -152.44921875 240.78125 C-153.56031233 239.83963378 -154.68228325 238.91076256 -155.8125 237.9921875 C-174.24510679 221.95290336 -186.92736646 199.61130993 -194.125 176.3671875 C-194.125 175.7071875 -194.125 175.0471875 -194.125 174.3671875 C-194.99125 174.2846875 -195.8575 174.2021875 -196.75 174.1171875 C-204.04081309 172.49700681 -208.92781485 167.2902225 -213.125 161.3671875 C-220.82794054 146.77214226 -220.49939697 130.91556221 -216.125 115.3671875 C-215.795 114.3771875 -215.465 113.3871875 -215.125 112.3671875 C-215.42514783 110.4298697 -215.73514764 108.49334578 -216.10498047 106.56811523 C-221.69218751 77.40074784 -218.12023746 47.69553856 -202.125 22.3671875 C-182.36681633 -6.40322067 -151.67273756 -21.75595412 -118.01049805 -28.10961914 C-78.08289014 -34.7744363 -31.44989302 -26.99319407 0 0 Z M-180.25 21.5546875 C-194.8726971 38.51110798 -201.35564386 60.86772719 -201.25 82.9296875 C-201.25580078 84.14688477 -201.25580078 84.14688477 -201.26171875 85.38867188 C-201.25402811 90.15302561 -200.91960894 94.66890448 -200.125 99.3671875 C-195.505 99.0371875 -190.885 98.7071875 -186.125 98.3671875 C-185.59390625 96.7996875 -185.0628125 95.2321875 -184.515625 93.6171875 C-183.80237732 91.5337535 -183.08881919 89.45042576 -182.375 87.3671875 C-182.02695313 86.33722656 -181.67890625 85.30726562 -181.3203125 84.24609375 C-175.92833161 68.56940857 -175.92833161 68.56940857 -171.125 65.3671875 C-165.804916 65.63382655 -162.11544086 67.18045569 -157.5 69.7421875 C-143.08076748 77.35276845 -128.63295264 78.13297497 -113.125 73.3671875 C-104.65329845 70.39545782 -96.40178207 66.81057983 -88.18359375 63.20703125 C-69.15377345 54.8951778 -48.53551495 48.52892891 -28.125 56.3671875 C-8.89010816 64.75308779 -8.89010816 64.75308779 -5.67114258 71.34399414 C-5.10109497 73.0435022 -5.10109497 73.0435022 -4.51953125 74.77734375 C-4.09349609 76.01419922 -3.66746094 77.25105469 -3.22851562 78.52539062 C-2.7974075 79.82656819 -2.36707675 81.12800356 -1.9375 82.4296875 C-1.07547381 84.98533041 -0.20408613 87.53758543 0.66796875 90.08984375 C1.0446167 91.22172119 1.42126465 92.35359863 1.80932617 93.51977539 C2.80455828 96.50837445 2.80455828 96.50837445 4.875 99.3671875 C8.00057959 99.73248982 8.00057959 99.73248982 11.5 99.5546875 C12.68851563 99.52761719 13.87703125 99.50054687 15.1015625 99.47265625 C16.47441406 99.42044922 16.47441406 99.42044922 17.875 99.3671875 C23.75759546 79.24670694 17.35492012 53.59600034 8.0625 35.6171875 C-4.67008544 13.51290211 -25.82097578 -1.81547022 -50.13037109 -8.79321289 C-95.84857212 -21.05112445 -146.83383192 -13.62710982 -180.25 21.5546875 Z M-89.125 80.3671875 C-109.99117837 90.67664915 -129.08166551 95.01045309 -152.125 89.3671875 C-154.8979941 88.37387618 -157.54796043 87.30223556 -160.20703125 86.0390625 C-162.30108347 85.08583345 -162.30108347 85.08583345 -165.125 86.3671875 C-166.3756689 89.0032982 -166.3756689 89.0032982 -167.3515625 92.265625 C-167.7434375 93.46703125 -168.1353125 94.6684375 -168.5390625 95.90625 C-168.94298962 97.184807 -169.34663238 98.46345387 -169.75 99.7421875 C-170.16035374 101.01337794 -170.57179935 102.28421646 -170.984375 103.5546875 C-171.7392749 105.88937793 -172.48926127 108.22566641 -173.23291016 110.56396484 C-173.84991436 112.5027832 -174.48159416 114.43696997 -175.125 116.3671875 C-180.29907782 117.40200306 -183.20996297 117.07240443 -188.125 115.3671875 C-191.04545392 114.91352475 -193.10417633 115.02612676 -196.125 115.3671875 C-200.49838988 119.28022055 -201.9345743 124.14143255 -202.42578125 129.8828125 C-202.45461417 139.0709038 -202.20478393 148.88437651 -196.125 156.3671875 C-193.00838841 158.18521093 -191.14011174 158.36744805 -187.5 158.3046875 C-184.125 158.3671875 -184.125 158.3671875 -182.52416992 159.55981445 C-180.82482124 161.7549424 -180.16681412 163.69066981 -179.36328125 166.34765625 C-179.05334229 167.33918701 -178.74340332 168.33071777 -178.42407227 169.35229492 C-178.09850342 170.40908447 -177.77293457 171.46587402 -177.4375 172.5546875 C-168.76277007 199.51440707 -153.86346798 223.87495369 -128.27172852 237.70849609 C-109.67219197 247.21827 -87.8362271 250.20653697 -67.640625 243.75390625 C-56.12314936 239.21090197 -46.2693375 233.86033733 -37.125 225.3671875 C-35.75601563 224.13548828 -35.75601563 224.13548828 -34.359375 222.87890625 C-18.03839766 207.49251001 -8.83533536 187.11738038 -2.33129883 165.95654297 C-1.93720825 164.68641357 -1.93720825 164.68641357 -1.53515625 163.390625 C-1.30965088 162.63700684 -1.08414551 161.88338867 -0.85180664 161.10693359 C-0.125 159.3671875 -0.125 159.3671875 1.875 158.3671875 C3.49894458 158.26533732 5.12426691 158.18472537 6.75 158.1171875 C10.83776321 157.71272107 10.83776321 157.71272107 14.25 155.4921875 C19.61145116 145.18170449 22.36881352 134.28954479 18.75 122.8046875 C16.36142308 118.42562982 15.3457309 116.68238743 10.875 114.3671875 C7.93449144 114.77850864 5.3225823 115.57242227 2.51171875 116.5234375 C-0.46078189 117.47463771 -3.02055084 117.61889959 -6.125 117.3671875 C-7.62971411 113.6669587 -9.02726635 109.9398644 -10.375 106.1796875 C-10.81199219 104.96152344 -11.24898437 103.74335938 -11.69921875 102.48828125 C-12.73652302 99.53828911 -13.70463709 96.57225775 -14.64453125 93.58984375 C-14.90137695 92.78506592 -15.15822266 91.98028809 -15.42285156 91.15112305 C-15.92351853 89.57383027 -16.41416121 87.99331202 -16.89355469 86.40942383 C-18.25772173 82.13481301 -19.38891931 79.11167143 -23.125 76.3671875 C-25.61038479 75.18142291 -27.99769813 74.14493552 -30.5625 73.1796875 C-31.21798828 72.91994141 -31.87347656 72.66019531 -32.54882812 72.39257812 C-38.82130071 69.95782698 -44.36609484 69.14641908 -51.0625 69.0546875 C-51.73345703 69.02568359 -52.40441406 68.99667969 -53.09570312 68.96679688 C-66.03285749 68.8117895 -77.80170904 74.77263004 -89.125 80.3671875 Z M-134.125 253.3671875 C-134.54910156 254.32238281 -134.97320312 255.27757812 -135.41015625 256.26171875 C-144.42827653 276.25932263 -144.42827653 276.25932263 -149.890625 280.8515625 C-151.4007353 282.35746906 -151.4007353 282.35746906 -150.984375 284.8046875 C-143.62137556 306.75981311 -111.19868993 324.31806088 -93.125 336.3671875 C-74.79662369 335.06018886 -48.12496892 306.65574369 -36.125 293.3671875 C-32.39132394 288.9038951 -32.39132394 288.9038951 -31.28515625 283.453125 C-32.38608033 280.71873681 -33.98629467 278.74288092 -35.8125 276.4296875 C-40.27991257 270.46244342 -43.18925496 264.18297773 -46.125 257.3671875 C-46.78020898 256.0281866 -47.44178349 254.69211671 -48.125 253.3671875 C-49.06859375 253.76550781 -50.0121875 254.16382813 -50.984375 254.57421875 C-75.87037874 264.9097279 -101.07739909 266.96703332 -126.35546875 256.55078125 C-127.26941406 256.16019531 -128.18335938 255.76960938 -129.125 255.3671875 C-130.79025284 254.69699707 -132.45644672 254.02911814 -134.125 253.3671875 Z M-16.125 290.3671875 C-16.45371094 290.96144531 -16.78242188 291.55570312 -17.12109375 292.16796875 C-30.98759631 316.33100709 -54.36493797 332.30221505 -77.28833008 347.13134766 C-77.89443115 347.5391748 -78.50053223 347.94700195 -79.125 348.3671875 C-79.81296032 348.7901904 -80.50092064 349.2131933 -81.20972824 349.64901447 C-83.30540422 351.19613732 -83.30540422 351.19613732 -83.61719131 353.53232861 C-83.61350414 354.37761277 -83.60981697 355.22289694 -83.60601807 356.09379578 C-83.61151672 357.06554749 -83.61701538 358.03729919 -83.62268066 359.03849792 C-83.60829956 360.10304703 -83.59391846 361.16759613 -83.57910156 362.2644043 C-83.57968567 363.38650299 -83.58026978 364.50860168 -83.58087158 365.66470337 C-83.57807969 369.38224982 -83.54693406 373.09899947 -83.515625 376.81640625 C-83.50816658 379.39044252 -83.50247177 381.96448447 -83.49847412 384.53852844 C-83.48474997 390.62658479 -83.4532089 396.71431115 -83.41307616 402.80224305 C-83.36837709 409.73321634 -83.34637617 416.66420329 -83.32629442 423.59528482 C-83.28447643 437.85273993 -83.2141128 452.10995352 -83.125 466.3671875 C-56.10517706 465.10435283 -56.10517706 465.10435283 -29.1875 462.5546875 C-28.48615936 462.47070709 -27.78481873 462.38672668 -27.06222534 462.30020142 C42.24612012 454.42548476 42.24612012 454.42548476 99.15234375 417.6171875 C109.58491842 403.99096752 108.22825578 384.1910039 106.48046875 367.96875 C104.34048008 355.01836694 98.28792094 342.56271996 88.875 333.3671875 C88.36839844 332.79097656 87.86179687 332.21476562 87.33984375 331.62109375 C72.92881325 315.72292988 46.88363466 307.17815739 26.875 301.3671875 C26.215 301.3671875 25.555 301.3671875 24.875 301.3671875 C25.09702736 303.34973481 25.31974269 305.33220592 25.54443359 307.31445312 C25.79000824 309.58230053 26.0165153 311.8522294 26.23291016 314.12304688 C26.5774308 317.71274525 26.98822757 321.29134097 27.42749023 324.87060547 C27.60140344 326.37328092 27.75494009 327.87844922 27.88842773 329.38525391 C28.33517316 334.33109586 28.91576265 338.77599891 30.875 343.3671875 C33.88996701 345.57588207 36.42369752 346.57125518 40.02026367 347.53955078 C44.50798107 348.84061655 46.61316362 351.40522907 48.875 355.3671875 C53.33028266 364.23572185 54.44076435 373.41210908 51.875 383.0546875 C49.15434718 390.01449705 44.08082263 395.72601479 37.3125 398.9296875 C29.35239235 401.59534083 19.74426431 401.91203802 11.875 398.8046875 C4.07519592 394.60366308 -0.26936407 388.63597946 -3.125 380.3671875 C-5.43115475 372.48782543 -4.19738694 364.83604446 -1.125 357.3671875 C1.0625 354.3671875 1.0625 354.3671875 2.875 352.3671875 C2.875 351.7071875 2.875 351.0471875 2.875 350.3671875 C6.875 348.3671875 10.875 346.3671875 14.875 344.3671875 C13.20660219 327.64025611 10.1479529 311.62140911 5.875 295.3671875 C-4.95878216 292.07051824 -4.95878216 292.07051824 -16.125 290.3671875 Z M-180.4375 293.3671875 C-181.27345703 293.55796875 -182.10941406 293.74875 -182.97070312 293.9453125 C-185.02324009 294.41446381 -187.07427555 294.89017579 -189.125 295.3671875 C-191.42282253 302.83219471 -193.42876602 310.2568854 -194.875 317.9296875 C-195.00237549 318.59548828 -195.12975098 319.26128906 -195.26098633 319.94726562 C-195.89750667 323.46217824 -196.26210334 326.79564556 -196.125 330.3671875 C-194.8565625 330.69589844 -194.8565625 330.69589844 -193.5625 331.03125 C-182.53621639 334.11359746 -175.06560654 338.39304414 -169.125 348.3671875 C-164.04201976 358.17214087 -161.93284709 368.58565665 -160.60546875 379.48046875 C-160.52321045 380.15231201 -160.44095215 380.82415527 -160.35620117 381.51635742 C-160.13765366 383.38405013 -159.94308353 385.25450333 -159.75 387.125 C-159.09752699 390.50970374 -157.90098249 392.4619118 -156.125 395.3671875 C-155.61920171 399.98259686 -156.59856638 403.53508275 -159.0625 407.4296875 C-163.40285267 410.1756249 -167.11846993 410.27970776 -172.125 409.3671875 C-175.05923195 407.57071896 -176.59705355 406.4230804 -178.125 403.3671875 C-178.24614921 401.72462959 -178.30040767 400.07666272 -178.3125 398.4296875 C-178.32667969 397.55441406 -178.34085937 396.67914063 -178.35546875 395.77734375 C-178.125 393.3671875 -178.125 393.3671875 -176.125 390.3671875 C-176.06312635 387.82447519 -176.11854125 385.45380015 -176.3125 382.9296875 C-176.36365967 382.21683594 -176.41481934 381.50398438 -176.4675293 380.76953125 C-177.34027819 370.25414381 -179.32140299 359.39420763 -186.8125 351.5546875 C-193.24978398 347.30365091 -199.01335366 345.66760393 -206.70703125 346.80078125 C-213.95812233 348.49934055 -219.04467969 352.11676053 -223.125 358.3671875 C-228.14090119 369.27589569 -226.65130471 385.07979874 -223.125 396.3671875 C-221.83266393 397.74029457 -220.50062854 399.07753574 -219.125 400.3671875 C-217.52810959 403.56096832 -217.75151043 406.89240065 -218.125 410.3671875 C-219.36032458 413.20843403 -220.3805439 414.78816609 -222.8125 416.6796875 C-227.28522993 418.00941802 -231.53330706 417.74780972 -236 416.6796875 C-238.125 415.3671875 -238.125 415.3671875 -239.4375 413.3046875 C-240.48323643 408.83654092 -240.89127833 403.91794962 -239.5546875 399.46875 C-238.95986888 396.5595462 -239.53058268 394.22154128 -240.0625 391.3046875 C-242.47713143 375.44419748 -242.98373514 358.53835004 -233.9140625 344.62109375 C-230.45124173 340.25854444 -226.23232289 336.1477118 -220.71166992 334.76098633 C-217.75272805 333.94367787 -215.62521041 333.16591554 -213.125 331.3671875 C-211.1074252 326.99183436 -210.5472059 322.55644402 -209.9375 317.8046875 C-209.63489258 315.93780273 -209.63489258 315.93780273 -209.32617188 314.03320312 C-208.14323942 307.63439944 -208.14323942 307.63439944 -209.125 301.3671875 C-250.34048595 314.60154041 -250.34048595 314.60154041 -280.125 344.3671875 C-280.81142578 345.4809375 -280.81142578 345.4809375 -281.51171875 346.6171875 C-290.90168015 363.31045222 -292.3649526 387.21184124 -287.67822266 405.51220703 C-283.60805772 419.15965327 -273.09547142 427.76956403 -260.94824219 434.39501953 C-260.34657227 434.71583496 -259.74490234 435.03665039 -259.125 435.3671875 C-258.50270508 435.69960449 -257.88041016 436.03202148 -257.23925781 436.37451172 C-222.27765189 454.6606396 -180.90357127 459.78613248 -142.125 463.6171875 C-141.29515594 463.70027161 -140.46531189 463.78335571 -139.61032104 463.86895752 C-129.74500815 464.84282293 -119.89775485 465.51556164 -109.9921875 465.91699219 C-108.94087646 465.96109222 -107.88956543 466.00519226 -106.80639648 466.05062866 C-104.24599477 466.15779727 -101.68553615 466.26328928 -99.125 466.3671875 C-98.60884334 451.63411813 -98.22208455 436.90225754 -97.98513222 422.16195583 C-97.87212683 415.31557327 -97.71843522 408.47483476 -97.46533203 401.63208008 C-97.22082887 395.01862115 -97.09449658 388.40944527 -97.03770065 381.79127693 C-96.99727723 379.27680633 -96.91831547 376.76263 -96.79893875 374.25066948 C-95.86105148 360.71543075 -95.86105148 360.71543075 -101.27654266 348.85756302 C-106.54392683 344.29698694 -112.35748091 340.94280981 -118.53110886 337.76339912 C-122.03283354 335.8785287 -125.00774121 333.64372197 -128.125 331.1796875 C-129.59839844 330.01953125 -129.59839844 330.01953125 -131.1015625 328.8359375 C-136.87402172 324.12250826 -142.54806244 319.31033967 -148.125 314.3671875 C-148.82496094 313.75359375 -149.52492187 313.14 -150.24609375 312.5078125 C-155.85651988 307.2731424 -159.90657559 300.72489436 -164.125 294.3671875 C-165.115 292.8821875 -165.115 292.8821875 -166.125 291.3671875 C-170.88293324 290.63939657 -175.8160819 292.28751918 -180.4375 293.3671875 Z M14.875 362.3671875 C11.83070663 366.64822505 11.23814472 370.18136594 11.875 375.3671875 C13.03193556 378.89620478 14.51283018 381.46007884 17.640625 383.54296875 C21.95787094 385.4721318 25.53881419 385.73945283 30.046875 384.29296875 C33.42026688 382.58464851 34.84080932 380.57257888 36.875 377.3671875 C38.41396067 372.54511073 37.81654133 369.01000373 35.875 364.3671875 C32.87874141 361.16188762 30.68397667 359.62186534 26.5 358.3046875 C21.8015756 358.38569482 18.63310055 359.55707628 14.875 362.3671875 Z " fill="#B48F48" transform="translate(347.125,29.6328125)"/>
</svg>
